<svg width="24" height="24" viewBox="0 0 24 24" fill="none" xmlns="http://www.w3.org/2000/svg">
<path fill-rule="evenodd" clip-rule="evenodd" d="M2.20019 7.06372C3.96759 3.41846 7.71737 0.999996 12 0.999996C18.0523 0.999996 23 5.94771 23 12H21C21 7.05228 16.9477 3 12 3C8.48263 3 5.43241 4.98153 3.99981 7.93627L2.20019 7.06372Z" fill="black" fill-opacity="0.87"/>
<path fill-rule="evenodd" clip-rule="evenodd" d="M3.15657 0.474701L3.95687 6.3769L9.95906 5.5766L10.2234 7.55906L2.24313 8.6231L1.1747 0.743428L3.15657 0.474701Z" fill="black" fill-opacity="0.87"/>
<path fill-rule="evenodd" clip-rule="evenodd" d="M22.2362 16.0369L21.7997 16.9365C21.3282 17.9082 20.7157 18.7931 19.9901 19.5683L19.3067 20.2984L17.8466 18.9317L18.5299 18.2016C19.1203 17.5709 19.6178 16.8518 20.0003 16.0634L20.4369 15.1638L22.2362 16.0369Z" fill="black" fill-opacity="0.87"/>
<path fill-rule="evenodd" clip-rule="evenodd" d="M16.7329 21.9933L15.7933 22.3356C14.6897 22.7376 13.5053 22.9671 12.2741 22.9967L11.2743 23.0208L11.2262 21.0213L12.2259 20.9973C13.2387 20.9729 14.2083 20.7844 15.1087 20.4564L16.0483 20.1141L16.7329 21.9933Z" fill="black" fill-opacity="0.87"/>
<path fill-rule="evenodd" clip-rule="evenodd" d="M4.88037 17.5759L5.58026 18.2901C6.28243 19.0067 7.10329 19.6076 8.00786 20.0594L8.90246 20.5062L8.00875 22.2955L7.11414 21.8486C6.00871 21.2964 5.00757 20.5633 4.15174 19.6899L3.45186 18.9756L4.88037 17.5759Z" fill="black" fill-opacity="0.87"/>
<path fill-rule="evenodd" clip-rule="evenodd" d="M3 11V12C3 12.9378 3.14573 13.8422 3.41451 14.6926L3.71588 15.6461L1.80887 16.2489L1.50749 15.2954C1.17827 14.2537 1 13.1462 1 12V11H3Z" fill="black" fill-opacity="0.87"/>
</svg>
