<svg width="24" height="24" viewBox="0 0 24 24" fill="none" xmlns="http://www.w3.org/2000/svg">
<path fill-rule="evenodd" clip-rule="evenodd" d="M13.8 8.1L21.8 9.2L22.9 1.3L20.9 1L20.3 5.3C18.3 3 15.3 1.5 12 1.5C5.9 1.5 1 6.4 1 12.5H3C3 7.6 7.1 3.5 12 3.5C14.8 3.5 17.2 4.7 18.9 6.7L14 6.1L13.8 8.1Z" fill="black" fill-opacity="0.87"/>
<path fill-rule="evenodd" clip-rule="evenodd" d="M4 16.6L3.6 15.7L1.8 16.6L2.2 17.5C2.7 18.5 3.3 19.4 4 20.1L4.7 20.8L6.2 19.4L5.5 18.7C4.9 18.1 4.4 17.4 4 16.6Z" fill="black" fill-opacity="0.87"/>
<path fill-rule="evenodd" clip-rule="evenodd" d="M8.9 21L8 20.6L7.3 22.5L8.2 22.8C9.3 23.2 10.5 23.4 11.7 23.5H12.7V21.5H11.7C10.8 21.5 9.8 21.3 8.9 21Z" fill="black" fill-opacity="0.87"/>
<path fill-rule="evenodd" clip-rule="evenodd" d="M18.4 18.8C17.7 19.5 16.9 20.1 16 20.6L15.1 21L16 22.8L16.9 22.4C18 21.8 19 21.1 19.9 20.2L20.6 19.5L19.2 18.1L18.4 18.8Z" fill="black" fill-opacity="0.87"/>
<path fill-rule="evenodd" clip-rule="evenodd" d="M21 11.5V12.5C21 13.4 20.9 14.3 20.6 15.2L20.3 16.2L22.2 16.8L22.5 15.8C22.8 14.8 23 13.7 23 12.5V11.5H21Z" fill="black" fill-opacity="0.87"/>
</svg>
